<?xml version="1.0" encoding="UTF-8" standalone="no"?>
<!-- Created with Inkscape (http://www.inkscape.org/) -->

<svg
   width="400mm"
   height="76mm"
   viewBox="0 0 400 76"
   version="1.1"
   id="svg1"
   inkscape:version="1.4 (e7c3feb1, 2024-10-09)"
   sodipodi:docname="notoverkill.svg"
   xmlns:inkscape="http://www.inkscape.org/namespaces/inkscape"
   xmlns:sodipodi="http://sodipodi.sourceforge.net/DTD/sodipodi-0.dtd"
   xmlns="http://www.w3.org/2000/svg"
   xmlns:svg="http://www.w3.org/2000/svg">
  <sodipodi:namedview
     id="namedview1"
     pagecolor="#ffffff"
     bordercolor="#000000"
     borderopacity="0.25"
     inkscape:showpageshadow="2"
     inkscape:pageopacity="0.0"
     inkscape:pagecheckerboard="0"
     inkscape:deskcolor="#d1d1d1"
     inkscape:document-units="mm"
     inkscape:zoom="0.3118776"
     inkscape:cx="737.46881"
     inkscape:cy="198.79594"
     inkscape:window-width="1784"
     inkscape:window-height="1085"
     inkscape:window-x="7"
     inkscape:window-y="48"
     inkscape:window-maximized="0"
     inkscape:current-layer="layer1" />
  <defs
     id="defs1" />
  <g
     inkscape:label="Layer 1"
     inkscape:groupmode="layer"
     id="layer1">
    <g
       id="g2"
       transform="translate(-7.540109,1.148161)">
      <path
         style="font-size:9.87777px;font-family:'SF Pro';-inkscape-font-specification:'SF Pro';fill:#cba6f7;fill-opacity:1;stroke-width:0"
         d="M 15.080218,54.542403 V 28.683992 h 4.32631 v 3.67985 h 0.09945 q 1.044281,-1.815064 3.033389,-2.983665 1.989109,-1.193463 4.923046,-1.193463 4.251719,0 6.588922,2.585843 2.362067,2.560975 2.362067,6.986741 V 54.542403 H 32.087091 V 38.530078 q 0,-3.157708 -1.491832,-4.823589 -1.466968,-1.690743 -4.450631,-1.690743 -2.038836,0 -3.555532,0.919964 -1.516695,0.895101 -2.362067,2.536112 -0.820507,1.641019 -0.820507,3.853898 v 15.216684 z m 37.544425,0.497264 q -3.580395,0 -6.290556,-1.641017 -2.685296,-1.641016 -4.201992,-4.649538 -1.491832,-3.033392 -1.491832,-7.135932 v -0.04949 q 0,-4.127397 1.491832,-7.111064 1.516696,-3.008528 4.201992,-4.624675 2.710161,-1.641018 6.265692,-1.641018 3.580396,0 6.265693,1.641018 2.71016,1.616147 4.201992,4.624675 1.516697,2.983667 1.516697,7.111064 v 0.04949 q 0,4.127403 -1.516697,7.135932 -1.491832,3.008522 -4.177128,4.649538 -2.685296,1.641017 -6.265693,1.641017 z m 0.02484,-3.829034 q 2.287476,0 3.953354,-1.118875 1.690743,-1.143737 2.610705,-3.282028 0.944827,-2.163159 0.944827,-5.196551 v -0.04949 q 0,-3.033392 -0.944827,-5.171684 -0.919946,-2.138511 -2.635553,-3.257386 -1.690741,-1.118874 -3.978217,-1.118874 -2.237747,0 -3.953352,1.143736 -1.690744,1.118876 -2.63557,3.257167 -0.944826,2.113428 -0.944826,5.14682 v 0.04949 q 0,3.033392 0.944826,5.19655 0.944826,2.138291 2.63557,3.282029 1.715605,1.118874 4.003081,1.118874 z m 24.68981,3.829034 q -3.555534,0 -5.320866,-1.690743 -1.765333,-1.690744 -1.765333,-5.395455 v -15.6891 h -3.779308 v -3.580391 h 3.779308 V 21.69723 h 4.475492 v 6.986748 h 4.923045 v 3.580391 H 74.728586 V 47.9286 q 0,2.063701 0.8951,2.809618 0.895101,0.721052 2.63557,0.721052 0.397822,0 0.745917,-0.02474 0.372973,-0.04949 0.646458,-0.0746 v 3.505806 q -0.397821,0.04949 -1.044279,0.09944 -0.621601,0.0746 -1.268059,0.0746 z m 16.907432,0 q -3.580396,0 -6.290556,-1.641017 -2.685296,-1.641016 -4.201991,-4.649538 -1.491833,-3.033392 -1.491833,-7.135932 v -0.04949 q 0,-4.127397 1.491833,-7.111064 1.516695,-3.008528 4.201992,-4.624675 2.71016,-1.641018 6.265693,-1.641018 3.580392,0 6.265697,1.641018 2.71016,1.616147 4.20199,4.624675 1.51669,2.983667 1.51669,7.111064 v 0.04949 q 0,4.127403 -1.51669,7.135932 -1.49183,3.008522 -4.17713,4.649538 -2.685297,1.641017 -6.265695,1.641017 z m 0.02474,-3.829034 q 2.287474,0 3.953355,-1.118875 1.690743,-1.143737 2.6107,-3.282028 0.94483,-2.163159 0.94483,-5.196551 v -0.04949 q 0,-3.033392 -0.94483,-5.171684 -0.919957,-2.13829 -2.635564,-3.257165 -1.690743,-1.118874 -3.978218,-1.118874 -2.237749,0 -3.953355,1.143738 -1.690743,1.118875 -2.63557,3.257166 -0.944827,2.113427 -0.944827,5.146819 v 0.04949 q 0,3.033392 0.944827,5.196551 0.944827,2.138291 2.63557,3.282028 1.715606,1.118875 4.003082,1.118875 z m 22.576395,3.331755 -9.52287,-25.85841 h 4.55009 l 7.13593,21.258597 h 0.0994 l 7.16079,-21.258597 h 4.50036 l -9.498,25.85841 z m 26.95242,0.497263 q -3.70472,0 -6.39001,-1.641017 -2.66043,-1.641016 -4.10254,-4.624676 -1.41724,-3.008528 -1.41724,-7.061336 v -0.02474 q 0,-4.003082 1.4421,-7.036474 1.44211,-3.058254 4.05281,-4.748998 2.61071,-1.715604 6.14137,-1.715604 3.53067,0 6.06678,1.641016 2.56098,1.616147 3.9285,4.550085 1.3675,2.933935 1.3675,6.812696 v 1.591284 h -20.8359 v -3.381481 h 18.69762 l -2.18802,3.132844 v -1.665879 q 0,-3.008523 -0.91996,-4.972773 -0.8951,-1.964244 -2.4864,-2.90907 -1.59127,-0.969689 -3.65498,-0.969689 -2.0637,0 -3.70472,1.019415 -1.64101,0.994559 -2.58584,2.983665 -0.94482,1.964245 -0.94482,4.848452 v 1.665879 q 0,2.735024 0.91996,4.674409 0.94483,1.93938 2.66044,2.983659 1.7156,1.019422 4.0528,1.019422 1.64102,0 2.93394,-0.497264 1.29291,-0.497263 2.16316,-1.367511 0.87023,-0.870237 1.24319,-1.989111 l 0.0746,-0.223785 h 4.2517 l -0.0495,0.248632 q -0.32322,1.591286 -1.2432,2.98366 -0.89508,1.392374 -2.31233,2.461522 -1.41724,1.04428 -3.23231,1.641017 -1.81505,0.571869 -3.92848,0.571869 z m 15.44046,-0.497263 v -25.85841 h 4.32631 v 4.376038 h 0.0994 q 0.64646,-2.23775 2.23774,-3.555534 1.59129,-1.317783 3.7793,-1.317783 0.57188,0 1.01943,0.0746 0.47241,0.04948 0.72104,0.09944 v 4.20199 q -0.24862,-0.09944 -0.89509,-0.174038 -0.62159,-0.0746 -1.41725,-0.0746 -1.66587,0 -2.93392,0.745917 -1.2432,0.745916 -1.93939,2.163153 -0.67133,1.392376 -0.67133,3.356618 v 15.9626 z m 16.03719,0 V 18.663839 h 4.32631 v 35.878549 z m 16.33556,0 -9.8461,-12.35734 2.88421,-2.884207 11.98438,15.241547 z m -12.97894,-8.826669 v -5.619236 h 1.06915 l 11.33791,-11.412505 h 5.24628 l -12.25788,12.208154 h -0.34808 z m 21.28345,8.826669 v -25.85841 h 4.32632 v 25.85841 z m 2.16316,-30.234451 q -1.11888,0 -1.91453,-0.795642 -0.79564,-0.795648 -0.79564,-1.914517 0,-1.143738 0.79564,-1.914517 0.79565,-0.795648 1.91453,-0.795648 1.14373,0 1.91452,0.795648 0.79563,0.770779 0.79563,1.914517 0,1.118869 -0.79563,1.914517 -0.77079,0.795642 -1.91452,0.795642 z m 8.27967,30.234451 V 18.663839 h 4.3263 v 35.878549 z m 10.39308,0 V 18.663839 h 4.32631 v 35.878549 z"
         id="text1"
         aria-label="notoverkill" />
      <path
         d="m 230.90106,54.542399 v -25.85841 h 4.32631 v 3.67985 h 0.0994 q 1.04428,-1.81506 3.03339,-2.98366 1.98911,-1.19347 4.92304,-1.19347 4.25172,0 6.58893,2.58584 2.36206,2.56098 2.36206,6.98675 v 16.7831 h -4.32631 v -16.01232 q 0,-3.15772 -1.49183,-4.82359 -1.46697,-1.69074 -4.45063,-1.69074 -2.03884,0 -3.55553,0.91996 -1.5167,0.8951 -2.36207,2.53611 -0.82051,1.64101 -0.82051,3.8539 v 15.21668 z m 37.46983,0.49726 q -3.70471,0 -6.39001,-1.64101 -2.66043,-1.641 -4.10254,-4.62467 -1.41724,-3.00852 -1.41724,-7.06134 v -0.0247 q 0,-4.00308 1.44211,-7.03647 1.4421,-3.05825 4.05281,-4.74899 2.6107,-1.71561 6.14137,-1.71561 3.53067,0 6.06678,1.64102 2.56098,1.61615 3.92849,4.55008 1.36752,2.93393 1.36752,6.8127 v 1.59129 h -20.83592 v -3.38148 h 18.69762 l -2.18802,3.13284 v -1.66588 q 0,-3.00853 -0.91996,-4.97277 -0.8951,-1.96425 -2.48639,-2.90907 -1.59128,-0.96969 -3.65498,-0.96969 -2.0637,0 -3.70472,1.01941 -1.64101,0.99456 -2.58584,2.98367 -0.94483,1.96424 -0.94483,4.84845 v 1.66588 q 0,2.73502 0.91997,4.67441 0.94482,1.93937 2.66043,2.98365 1.71561,1.01943 4.05281,1.01943 1.64101,0 2.93393,-0.49727 1.29293,-0.49727 2.16316,-1.36751 0.87024,-0.87023 1.24319,-1.98911 l 0.0746,-0.22378 h 4.25172 l -0.0498,0.24863 q -0.32323,1.59128 -1.24319,2.98366 -0.8951,1.39237 -2.31234,2.46152 -1.41724,1.04428 -3.2323,1.64102 -1.81506,0.57187 -3.92849,0.57187 z m 23.84444,0 q -3.55553,0 -5.32087,-1.69075 -1.76533,-1.69074 -1.76533,-5.39545 v -15.68909 h -3.77931 v -3.5804 h 3.77931 v -6.98674 h 4.4755 v 6.98674 h 4.92304 v 3.5804 h -4.92304 v 15.66424 q 0,2.06369 0.89509,2.8096 0.89511,0.72106 2.63557,0.72106 0.39783,0 0.74592,-0.0247 0.37298,-0.0495 0.64646,-0.0746 v 3.5058 q -0.39782,0.0495 -1.04428,0.0994 -0.6216,0.0746 -1.26806,0.0746 z m 12.05898,-0.49726 -7.23539,-25.85841 h 4.30145 l 5.17169,21.03482 h 0.0994 l 5.843,-21.03482 h 4.17714 l 5.86786,21.03482 h 0.0994 l 5.17169,-21.03482 h 4.27658 l -7.21052,25.85841 h -4.40087 l -5.84301,-20.0154 h -0.0994 l -5.81814,20.0154 z m 42.01992,0.49726 q -3.5804,0 -6.29056,-1.64101 -2.68529,-1.641 -4.20199,-4.64953 -1.49183,-3.03339 -1.49183,-7.13593 v -0.0495 q 0,-4.1274 1.49183,-7.11107 1.5167,-3.00852 4.20199,-4.62467 2.71016,-1.64101 6.2657,-1.64101 3.58039,0 6.26568,1.64101 2.71016,1.61615 4.202,4.62467 1.51669,2.98367 1.51669,7.11107 v 0.0495 q 0,4.1274 -1.51669,7.13593 -1.49184,3.00853 -4.17713,4.64954 -2.6853,1.64102 -6.26569,1.64102 z m 0.0247,-3.82903 q 2.28748,0 3.95336,-1.11888 1.69074,-1.14373 2.6107,-3.28202 0.94483,-2.16316 0.94483,-5.19655 v -0.0495 q 0,-3.03339 -0.94483,-5.1717 -0.91996,-2.13828 -2.63557,-3.25716 -1.69074,-1.11887 -3.97821,-1.11887 -2.23775,0 -3.95336,1.14374 -1.69074,1.11887 -2.63557,3.25717 -0.94483,2.11343 -0.94483,5.14682 v 0.0495 q 0,3.03339 0.94483,5.19655 0.94483,2.13829 2.63557,3.28202 1.71561,1.11888 4.00308,1.11888 z m 16.28583,3.33175 v -25.85841 h 4.32631 v 4.37604 h 0.0994 q 0.64647,-2.23775 2.23775,-3.55553 1.59129,-1.31778 3.77931,-1.31778 0.57187,0 1.01941,0.0746 0.47242,0.0495 0.72106,0.0994 v 4.20201 q -0.24864,-0.0994 -0.8951,-0.17404 -0.62159,-0.0746 -1.41724,-0.0746 -1.66588,0 -2.93394,0.74592 -1.24319,0.74592 -1.93938,2.16315 -0.67133,1.39239 -0.67133,3.35663 v 15.96259 z m 16.03718,0 v -35.87854 h 4.32631 v 35.87854 z m 16.33557,0 -9.8461,-12.35733 2.88421,-2.8842 L 400,54.542379 Z m -12.97894,-8.82667 v -5.61922 h 1.06914 l 11.33792,-11.41252 h 5.24627 l -12.25787,12.20816 h -0.34808 z"
         id="text2"
         style="font-size:9.87777px;font-family:'SF Pro';-inkscape-font-specification:'SF Pro';fill:#89b4fa;fill-opacity:1;stroke-width:0"
         aria-label="network" />
    </g>
  </g>
</svg>
