<?xml version="1.0" encoding="UTF-8" standalone="no"?>
<!-- Created with Inkscape (http://www.inkscape.org/) -->

<svg
   width="275mm"
   height="76mm"
   viewBox="0 0 275 76"
   version="1.1"
   id="svg1"
   inkscape:version="1.4 (e7c3feb1, 2024-10-09)"
   sodipodi:docname="notoverkill1.svg"
   xmlns:inkscape="http://www.inkscape.org/namespaces/inkscape"
   xmlns:sodipodi="http://sodipodi.sourceforge.net/DTD/sodipodi-0.dtd"
   xmlns="http://www.w3.org/2000/svg"
   xmlns:svg="http://www.w3.org/2000/svg">
  <sodipodi:namedview
     id="namedview1"
     pagecolor="#ffffff"
     bordercolor="#000000"
     borderopacity="0.25"
     inkscape:showpageshadow="2"
     inkscape:pageopacity="0.0"
     inkscape:pagecheckerboard="0"
     inkscape:deskcolor="#d1d1d1"
     inkscape:document-units="mm"
     inkscape:zoom="0.3118776"
     inkscape:cx="735.86561"
     inkscape:cy="198.79594"
     inkscape:window-width="1784"
     inkscape:window-height="1085"
     inkscape:window-x="553"
     inkscape:window-y="234"
     inkscape:window-maximized="0"
     inkscape:current-layer="g2" />
  <defs
     id="defs1" />
  <g
     inkscape:label="Layer 1"
     inkscape:groupmode="layer"
     id="layer1">
    <g
       id="g2"
       transform="translate(-7.540109,1.148161)">
      <path
         style="font-size:9.87777px;font-family:'SF Pro';-inkscape-font-specification:'SF Pro';fill:#74c7ec;fill-opacity:1;stroke-width:0"
         d="M 21.37508,57.687153 V 27.232095 h 5.095365 v 4.333989 h 0.117129 q 1.229914,-2.137714 3.57261,-3.514048 2.342698,-1.405615 5.798177,-1.405615 5.007514,0 7.760183,3.045507 2.781953,3.01622 2.781953,8.228719 v 19.766506 h -5.095365 v -18.85871 q 0,-3.719029 -1.757023,-5.68104 -1.72774,-1.991293 -5.241785,-1.991293 -2.401264,0 -4.187571,1.083498 -1.786306,1.054215 -2.781953,2.986936 -0.966362,1.932731 -0.966362,4.538976 v 17.921634 z m 44.218403,0.585659 q -4.216853,0 -7.408779,-1.932727 -3.162639,-1.932727 -4.948947,-5.47605 -1.757023,-3.572615 -1.757023,-8.40443 v -0.05829 q 0,-4.861091 1.757023,-8.375142 1.786308,-3.543331 4.948947,-5.446768 3.191926,-1.932728 7.379495,-1.932728 4.216855,0 7.379496,1.932728 3.191924,1.903437 4.948947,5.446768 1.786309,3.514051 1.786309,8.375141 v 0.05829 q 0,4.861099 -1.786309,8.40443 -1.757023,3.543323 -4.919663,5.47605 -3.16264,1.932727 -7.379496,1.932728 z m 0.02926,-4.50969 q 2.694102,0 4.65611,-1.317769 1.991294,-1.34705 3.07479,-3.865448 1.112781,-2.547687 1.112781,-6.120302 v -0.05829 q 0,-3.572614 -1.112781,-6.091012 -1.083478,-2.518658 -3.104055,-3.836427 -1.99129,-1.317768 -4.685393,-1.317768 -2.635534,0 -4.656108,1.347049 -1.991295,1.317771 -3.104075,3.836168 -1.11278,2.489117 -1.11278,6.06173 v 0.05829 q 0,3.572615 1.11278,6.1203 1.11278,2.518397 3.104075,3.86545 2.020574,1.317768 4.714677,1.317768 z m 29.078723,4.50969 q -4.187573,0 -6.266714,-1.991292 -2.079143,-1.991294 -2.079143,-6.354563 v -18.47803 h -4.451126 v -4.216849 h 4.451126 v -8.228726 h 5.271065 v 8.228726 h 5.798176 v 4.216849 h -5.798176 v 18.448739 q 0,2.430549 1.054215,3.309061 1.054216,0.849228 3.104075,0.849228 0.468539,0 0.878513,-0.02914 0.439273,-0.05829 0.761373,-0.08786 v 4.129006 q -0.468538,0.05829 -1.229912,0.117117 -0.732098,0.08786 -1.493472,0.08786 z m 19.912934,0 q -4.21686,0 -7.40878,-1.932727 -3.16264,-1.932727 -4.94895,-5.47605 -1.75702,-3.572615 -1.75702,-8.40443 v -0.05829 q 0,-4.861091 1.75702,-8.375142 1.78631,-3.543331 4.94895,-5.446768 3.19193,-1.932728 7.3795,-1.932728 4.21685,0 7.3795,1.932728 3.19192,1.903437 4.94895,5.446768 1.7863,3.514051 1.7863,8.375141 v 0.05829 q 0,4.861099 -1.7863,8.40443 -1.75703,3.543324 -4.91967,5.47605 -3.16264,1.932728 -7.3795,1.932728 z m 0.0291,-4.509691 q 2.6941,0 4.65611,-1.317769 1.99129,-1.34705 3.07478,-3.865448 1.11279,-2.547686 1.11279,-6.120302 v -0.05829 q 0,-3.572614 -1.11279,-6.091012 -1.08349,-2.518397 -3.10406,-3.836166 -1.9913,-1.317767 -4.6854,-1.317767 -2.63554,0 -4.65611,1.347051 -1.99129,1.317769 -3.10408,3.836167 -1.11278,2.489114 -1.11278,6.061727 v 0.05829 q 0,3.572615 1.11278,6.120302 1.11279,2.518398 3.10408,3.865448 2.02057,1.317769 4.71468,1.317769 z m 26.58962,3.924014 -11.21567,-30.455056 h 5.35892 l 8.40443,25.037571 h 0.11707 l 8.43371,-25.037571 h 5.30035 l -11.18634,30.455056 z m 31.74354,0.585658 q -4.36328,0 -7.52591,-1.932727 -3.13335,-1.932727 -4.83181,-5.446768 -1.66918,-3.54333 -1.66918,-8.316575 v -0.02914 q 0,-4.714678 1.69845,-8.287293 1.69847,-3.601895 4.77325,-5.59319 3.0748,-2.020573 7.23307,-2.020573 4.15829,0 7.14523,1.932726 3.01622,1.903437 4.62684,5.358918 1.61059,3.455478 1.61059,8.023736 v 1.874153 H 161.49745 V 39.85348 h 22.02135 l -2.57697,3.689745 v -1.962009 q 0,-3.543324 -1.08349,-5.856743 -1.05422,-2.313413 -2.92839,-3.426193 -1.87414,-1.142063 -4.3047,-1.142063 -2.43054,0 -4.36327,1.200628 -1.93272,1.171354 -3.04551,3.514048 -1.11277,2.313413 -1.11277,5.710324 v 1.962009 q 0,3.221208 1.08349,5.505342 1.11279,2.284129 3.13337,3.514041 2.02057,1.200637 4.77323,1.200637 1.93273,0 3.45549,-0.585659 1.52274,-0.585658 2.54768,-1.610603 1.02493,-1.024932 1.46419,-2.342699 l 0.0879,-0.263566 h 5.00749 l -0.0583,0.292829 q -0.38068,1.874156 -1.4642,3.514041 -1.05419,1.639886 -2.72337,2.899088 -1.66917,1.229914 -3.80689,1.932727 -2.1377,0.673526 -4.62682,0.673526 z m 18.18523,-0.585658 V 27.232078 h 5.09537 v 5.153934 h 0.11707 q 0.76137,-2.635537 2.63552,-4.187573 1.87416,-1.552035 4.45112,-1.552035 0.67354,0 1.20064,0.08786 0.55639,0.05828 0.84922,0.117117 v 4.948945 q -0.29282,-0.117116 -1.05421,-0.204976 -0.73208,-0.08786 -1.66918,-0.08786 -1.962,0 -3.45546,0.878513 -1.46419,0.878511 -2.28414,2.547679 -0.79067,1.639888 -0.79067,3.953298 v 18.800145 z m 18.888,0 V 15.43074 h 5.09536 v 42.256396 z m 19.2394,0 -11.59636,-14.554007 3.39691,-3.396909 14.11475,17.950916 z M 214.00319,47.29142 v -6.618123 h 1.2592 l 13.35336,-13.441218 h 6.17887 l -14.43686,14.378303 h -0.40996 z m 25.06684,10.395716 V 27.232078 h 5.09537 v 30.455057 z m 2.54769,-35.608992 q -1.31778,0 -2.25486,-0.937077 -0.93708,-0.937084 -0.93708,-2.254845 0,-1.347051 0.93708,-2.254846 0.93708,-0.937084 2.25486,-0.937084 1.34704,0 2.25485,0.937084 0.93706,0.907795 0.93706,2.254846 0,1.317761 -0.93706,2.254845 -0.90781,0.937077 -2.25485,0.937077 z m 9.75148,35.608992 V 15.43074 h 5.09535 v 42.256396 z m 12.24057,0 V 15.43074 h 5.09537 v 42.256396 z"
         id="text1"
         aria-label="notoverkill" />
    </g>
  </g>
</svg>
